<?xml version="1.0" encoding="UTF-8"?>
<svg xmlns="http://www.w3.org/2000/svg" xmlns:xlink="http://www.w3.org/1999/xlink" version="1.1" viewBox="0 0 2500 2500">
  <defs>
    <style>
      .cls-1 {
        fill: url(#Degradado_sin_nombre_54-7);
      }

      .cls-2 {
        fill: url(#Degradado_sin_nombre_50-7);
      }

      .cls-3 {
        fill: #fff;
      }

      .cls-4 {
        fill: url(#Degradado_sin_nombre_50-10);
      }

      .cls-4, .cls-5, .cls-6, .cls-7, .cls-8, .cls-9, .cls-10, .cls-11, .cls-12, .cls-13, .cls-14, .cls-15, .cls-16, .cls-17, .cls-18, .cls-19, .cls-20, .cls-21, .cls-22, .cls-23, .cls-24, .cls-25 {
        isolation: isolate;
      }

      .cls-4, .cls-20, .cls-21 {
        opacity: .5;
      }

      .cls-5 {
        fill: url(#Degradado_sin_nombre_54-10);
      }

      .cls-5, .cls-17, .cls-18 {
        opacity: .67;
      }

      .cls-6 {
        fill: url(#Degradado_sin_nombre_45-10);
      }

      .cls-6, .cls-16 {
        opacity: .61;
      }

      .cls-7 {
        fill: url(#Degradado_sin_nombre_50-11);
        opacity: .75;
      }

      .cls-26 {
        fill: url(#Degradado_sin_nombre_50-8);
      }

      .cls-26, .cls-27, .cls-28, .cls-29, .cls-30, .cls-31, .cls-32 {
        fill-opacity: 0;
      }

      .cls-27 {
        fill: url(#Degradado_sin_nombre_45-6);
      }

      .cls-28 {
        fill: url(#Degradado_sin_nombre_45-4);
      }

      .cls-29 {
        fill: url(#Degradado_sin_nombre_54-8);
      }

      .cls-8 {
        fill: url(#Degradado_sin_nombre_45-7);
        opacity: .15;
      }

      .cls-9 {
        fill: url(#Degradado_sin_nombre_45-8);
        opacity: .3;
      }

      .cls-10 {
        fill: url(#Degradado_sin_nombre_54-3);
      }

      .cls-10, .cls-11, .cls-12 {
        opacity: .33;
      }

      .cls-11 {
        fill: url(#Degradado_sin_nombre_54-9);
      }

      .cls-12 {
        fill: url(#Degradado_sin_nombre_50-3);
      }

      .cls-13 {
        fill: url(#Degradado_sin_nombre_50-9);
        opacity: .25;
      }

      .cls-14 {
        fill: url(#Degradado_sin_nombre_54-2);
      }

      .cls-14, .cls-15 {
        opacity: .17;
      }

      .cls-15 {
        fill: url(#Degradado_sin_nombre_50-2);
      }

      .cls-16 {
        fill: url(#Degradado_sin_nombre_45-3);
      }

      .cls-17 {
        fill: url(#Degradado_sin_nombre_50-5);
      }

      .cls-18 {
        fill: url(#Degradado_sin_nombre_54-5);
      }

      .cls-19 {
        fill: url(#Degradado_sin_nombre_45-2);
        opacity: .51;
      }

      .cls-20 {
        fill: url(#Degradado_sin_nombre_54-4);
      }

      .cls-21 {
        fill: url(#Degradado_sin_nombre_50-4);
      }

      .cls-22 {
        fill: url(#Degradado_sin_nombre_45-9);
        opacity: .46;
      }

      .cls-23 {
        fill: url(#Degradado_sin_nombre_45-5);
        opacity: .35;
      }

      .cls-24 {
        fill: url(#Degradado_sin_nombre_50-6);
      }

      .cls-24, .cls-25 {
        opacity: .83;
      }

      .cls-25 {
        fill: url(#Degradado_sin_nombre_54-6);
      }

      .cls-30 {
        fill: url(#Degradado_sin_nombre_54);
      }

      .cls-31 {
        fill: url(#Degradado_sin_nombre_50);
      }

      .cls-32 {
        fill: url(#Degradado_sin_nombre_45);
      }

      .cls-33 {
        fill: url(#Degradado_sin_nombre_50-12);
      }

      .cls-34 {
        fill: url(#Degradado_sin_nombre_54-11);
      }
    </style>
    <linearGradient id="Degradado_sin_nombre_45" data-name="Degradado sin nombre 45" x1="1660.71" y1="837.84" x2="886.18" y2="1612.37" gradientTransform="translate(0 2498.55) scale(1 -1)" gradientUnits="userSpaceOnUse">
      <stop offset="0" stop-color="#96009e"/>
      <stop offset="1" stop-color="#1c0093"/>
    </linearGradient>
    <linearGradient id="Degradado_sin_nombre_45-2" data-name="Degradado sin nombre 45" x1="1639.42" y1="859.13" x2="878.47" y2="1620.08" xlink:href="#Degradado_sin_nombre_45"/>
    <linearGradient id="Degradado_sin_nombre_45-3" data-name="Degradado sin nombre 45" x1="1635.17" y1="863.37" x2="877.25" y2="1621.29" xlink:href="#Degradado_sin_nombre_45"/>
    <linearGradient id="Degradado_sin_nombre_50" data-name="Degradado sin nombre 50" x1="1638.89" y1="859.66" x2="879.71" y2="1618.84" gradientTransform="translate(0 2498.55) scale(1 -1)" gradientUnits="userSpaceOnUse">
      <stop offset="0" stop-color="#d700dd"/>
      <stop offset="1" stop-color="#3300d1"/>
    </linearGradient>
    <linearGradient id="Degradado_sin_nombre_50-2" data-name="Degradado sin nombre 50" x1="1637.8" y1="860.74" x2="879.84" y2="1618.7" xlink:href="#Degradado_sin_nombre_50"/>
    <linearGradient id="Degradado_sin_nombre_50-3" data-name="Degradado sin nombre 50" x1="1636.72" y1="861.82" x2="879.99" y2="1618.56" xlink:href="#Degradado_sin_nombre_50"/>
    <linearGradient id="Degradado_sin_nombre_50-4" data-name="Degradado sin nombre 50" x1="1635.64" y1="862.91" x2="880.14" y2="1618.41" xlink:href="#Degradado_sin_nombre_50"/>
    <linearGradient id="Degradado_sin_nombre_50-5" data-name="Degradado sin nombre 50" x1="1634.55" y1="863.99" x2="880.29" y2="1618.25" xlink:href="#Degradado_sin_nombre_50"/>
    <linearGradient id="Degradado_sin_nombre_50-6" data-name="Degradado sin nombre 50" x1="1633.47" y1="865.07" x2="880.46" y2="1618.09" xlink:href="#Degradado_sin_nombre_50"/>
    <linearGradient id="Degradado_sin_nombre_50-7" data-name="Degradado sin nombre 50" x1="1632.38" y1="866.16" x2="880.63" y2="1617.92" xlink:href="#Degradado_sin_nombre_50"/>
    <linearGradient id="Degradado_sin_nombre_54" data-name="Degradado sin nombre 54" x1="1627.28" y1="871.27" x2="886.79" y2="1611.75" gradientTransform="translate(0 2498.55) scale(1 -1)" gradientUnits="userSpaceOnUse">
      <stop offset="0" stop-color="#f0f"/>
      <stop offset="1" stop-color="#4a00ff"/>
    </linearGradient>
    <linearGradient id="Degradado_sin_nombre_54-2" data-name="Degradado sin nombre 54" x1="1626.67" y1="871.88" x2="886.1" y2="1612.45" xlink:href="#Degradado_sin_nombre_54"/>
    <linearGradient id="Degradado_sin_nombre_54-3" data-name="Degradado sin nombre 54" x1="1626.05" y1="872.5" x2="885.43" y2="1613.12" xlink:href="#Degradado_sin_nombre_54"/>
    <linearGradient id="Degradado_sin_nombre_54-4" data-name="Degradado sin nombre 54" x1="1625.42" y1="873.12" x2="884.78" y2="1613.77" xlink:href="#Degradado_sin_nombre_54"/>
    <linearGradient id="Degradado_sin_nombre_54-5" data-name="Degradado sin nombre 54" x1="1624.79" y1="873.76" x2="884.15" y2="1614.4" xlink:href="#Degradado_sin_nombre_54"/>
    <linearGradient id="Degradado_sin_nombre_54-6" data-name="Degradado sin nombre 54" x1="1624.14" y1="874.41" x2="883.53" y2="1615.01" xlink:href="#Degradado_sin_nombre_54"/>
    <linearGradient id="Degradado_sin_nombre_54-7" data-name="Degradado sin nombre 54" x1="1623.48" y1="875.06" x2="882.93" y2="1615.61" xlink:href="#Degradado_sin_nombre_54"/>
    <linearGradient id="Degradado_sin_nombre_45-4" data-name="Degradado sin nombre 45" x1="1643.47" y1="901.39" x2="912.93" y2="1631.93" xlink:href="#Degradado_sin_nombre_45"/>
    <linearGradient id="Degradado_sin_nombre_45-5" data-name="Degradado sin nombre 45" x1="1646.25" y1="898.6" x2="911.27" y2="1633.59" xlink:href="#Degradado_sin_nombre_45"/>
    <linearGradient id="Degradado_sin_nombre_45-6" data-name="Degradado sin nombre 45" x1="1641.61" y1="903.25" x2="898.54" y2="1646.31" xlink:href="#Degradado_sin_nombre_45"/>
    <linearGradient id="Degradado_sin_nombre_45-7" data-name="Degradado sin nombre 45" x1="1645.91" y1="898.95" x2="898.52" y2="1646.34" xlink:href="#Degradado_sin_nombre_45"/>
    <linearGradient id="Degradado_sin_nombre_45-8" data-name="Degradado sin nombre 45" x1="1647.97" y1="896.9" x2="899.96" y2="1644.9" xlink:href="#Degradado_sin_nombre_45"/>
    <linearGradient id="Degradado_sin_nombre_45-9" data-name="Degradado sin nombre 45" x1="1647.77" y1="897.09" x2="902.87" y2="1641.99" xlink:href="#Degradado_sin_nombre_45"/>
    <linearGradient id="Degradado_sin_nombre_45-10" data-name="Degradado sin nombre 45" x1="1645.33" y1="899.54" x2="907.25" y2="1637.61" xlink:href="#Degradado_sin_nombre_45"/>
    <linearGradient id="Degradado_sin_nombre_50-8" data-name="Degradado sin nombre 50" x1="1637.9" y1="906.97" x2="907.17" y2="1637.69" xlink:href="#Degradado_sin_nombre_50"/>
    <linearGradient id="Degradado_sin_nombre_50-9" data-name="Degradado sin nombre 50" x1="1638.99" y1="905.87" x2="908.4" y2="1636.46" xlink:href="#Degradado_sin_nombre_50"/>
    <linearGradient id="Degradado_sin_nombre_50-10" data-name="Degradado sin nombre 50" x1="1639.82" y1="905.04" x2="909.77" y2="1635.1" xlink:href="#Degradado_sin_nombre_50"/>
    <linearGradient id="Degradado_sin_nombre_50-11" data-name="Degradado sin nombre 50" x1="1640.38" y1="904.48" x2="911.27" y2="1633.59" xlink:href="#Degradado_sin_nombre_50"/>
    <linearGradient id="Degradado_sin_nombre_50-12" data-name="Degradado sin nombre 50" x1="1640.69" y1="904.18" x2="912.91" y2="1631.95" xlink:href="#Degradado_sin_nombre_50"/>
    <linearGradient id="Degradado_sin_nombre_54-8" data-name="Degradado sin nombre 54" x1="1639.29" y1="905.57" x2="902.45" y2="1642.41" xlink:href="#Degradado_sin_nombre_54"/>
    <linearGradient id="Degradado_sin_nombre_54-9" data-name="Degradado sin nombre 54" x1="1643.71" y1="901.14" x2="903.26" y2="1641.6" xlink:href="#Degradado_sin_nombre_54"/>
    <linearGradient id="Degradado_sin_nombre_54-10" data-name="Degradado sin nombre 54" x1="1646.97" y1="897.9" x2="904.71" y2="1640.16" xlink:href="#Degradado_sin_nombre_54"/>
    <linearGradient id="Degradado_sin_nombre_54-11" data-name="Degradado sin nombre 54" x1="1649.05" y1="895.82" x2="906.81" y2="1638.06" xlink:href="#Degradado_sin_nombre_54"/>
  </defs>
  <!-- Generator: Adobe Illustrator 28.6.0, SVG Export Plug-In . SVG Version: 1.2.0 Build 709)  -->
  <g>
    <g id="Capa_1">
      <g id="Layer_1">
        <g>
          <g>
            <path class="cls-32" d="M1250,794.41c-251.22,0-455.6,204.38-455.6,455.6s204.38,455.6,455.6,455.6,455.6-204.38,455.6-455.6-204.38-455.6-455.6-455.6h0ZM1250,1837.78c-79.32,0-156.3-15.55-228.81-46.22-70-29.61-132.85-71.98-186.81-125.94-53.96-53.96-96.33-116.81-125.94-186.81-30.67-72.51-46.22-149.49-46.22-228.81s15.55-156.3,46.22-228.81c29.61-70,71.98-132.85,125.94-186.81,53.96-53.96,116.81-96.33,186.81-125.94,72.5-30.67,149.49-46.22,228.81-46.22s156.3,15.55,228.81,46.22c70,29.61,132.85,71.98,186.81,125.94,53.96,53.96,96.33,116.81,125.94,186.81,30.67,72.5,46.22,149.49,46.22,228.81s-15.55,156.3-46.22,228.81c-29.61,70-71.98,132.85-125.94,186.81-53.96,53.96-116.81,96.33-186.81,125.94-72.5,30.67-149.49,46.22-228.81,46.22h0Z"/>
            <path class="cls-19" d="M1250,765.07c-267.39,0-484.94,217.54-484.94,484.94s217.55,484.94,484.94,484.94,484.94-217.55,484.94-484.94-217.54-484.94-484.94-484.94h0ZM1250,1808.44c-75.37,0-148.51-14.77-217.38-43.9-66.5-28.13-126.22-68.39-177.5-119.66-51.28-51.28-91.53-110.99-119.66-177.5-29.13-68.87-43.9-142.01-43.9-217.38s14.77-148.51,43.9-217.38c28.13-66.5,68.39-126.22,119.66-177.5,51.28-51.28,110.99-91.53,177.5-119.66,68.87-29.13,142.01-43.9,217.38-43.9s148.51,14.77,217.38,43.9c66.5,28.13,126.22,68.39,177.5,119.66,51.28,51.28,91.53,110.99,119.66,177.5,29.13,68.87,43.9,142.01,43.9,217.38s-14.77,148.51-43.9,217.38c-28.13,66.5-68.39,126.22-119.66,177.5-51.28,51.28-110.99,91.53-177.5,119.66-68.87,29.13-142.01,43.9-217.38,43.9Z"/>
            <path class="cls-16" d="M1250,759.2c-270.63,0-490.81,220.18-490.81,490.81s220.18,490.81,490.81,490.81,490.81-220.18,490.81-490.81-220.18-490.81-490.81-490.81h0ZM1250,1802.57c-74.58,0-146.95-14.62-215.09-43.44-65.81-27.83-124.89-67.67-175.63-118.4-50.74-50.74-90.58-109.83-118.4-175.63-28.82-68.14-43.44-140.51-43.44-215.09s14.62-146.95,43.44-215.09c27.83-65.81,67.67-124.89,118.4-175.63,50.74-50.74,109.83-90.58,175.63-118.4,68.14-28.82,140.51-43.44,215.09-43.44s146.95,14.61,215.09,43.44c65.81,27.83,124.89,67.67,175.63,118.4,50.74,50.74,90.58,109.83,118.4,175.63,28.82,68.14,43.44,140.51,43.44,215.09s-14.61,146.95-43.44,215.09c-27.84,65.81-67.67,124.89-118.4,175.63-50.74,50.74-109.83,90.58-175.63,118.4-68.14,28.82-140.51,43.44-215.09,43.44Z"/>
          </g>
          <g>
            <path class="cls-31" d="M1250,759.2c-270.63,0-490.81,220.18-490.81,490.81s220.18,490.81,490.81,490.81,490.81-220.18,490.81-490.81-220.18-490.81-490.81-490.81h0ZM1250,1802.57c-74.58,0-146.95-14.62-215.09-43.44-65.81-27.83-124.89-67.67-175.63-118.4-50.74-50.74-90.58-109.83-118.4-175.63-28.82-68.14-43.44-140.51-43.44-215.09s14.62-146.95,43.44-215.09c27.83-65.81,67.67-124.89,118.4-175.63,50.74-50.74,109.83-90.58,175.63-118.4,68.14-28.82,140.51-43.44,215.09-43.44s146.95,14.61,215.09,43.44c65.81,27.83,124.89,67.67,175.63,118.4,50.74,50.74,90.58,109.83,118.4,175.63,28.82,68.14,43.44,140.51,43.44,215.09s-14.61,146.95-43.44,215.09c-27.84,65.81-67.67,124.89-118.4,175.63-50.74,50.74-109.83,90.58-175.63,118.4-68.14,28.82-140.51,43.44-215.09,43.44Z"/>
            <path class="cls-15" d="M1250,757.48c-271.58,0-492.53,220.94-492.53,492.52s220.94,492.53,492.53,492.53,492.52-220.94,492.52-492.53-220.94-492.52-492.52-492.52h0ZM1250,1800.85c-74.35,0-146.49-14.57-214.42-43.3-65.6-27.74-124.51-67.46-175.08-118.04-50.58-50.58-90.29-109.48-118.04-175.08-28.73-67.93-43.3-140.07-43.3-214.42s14.57-146.49,43.3-214.42c27.74-65.6,67.46-124.51,118.04-175.08,50.58-50.58,109.48-90.29,175.08-118.04,67.93-28.73,140.07-43.3,214.42-43.3s146.49,14.57,214.42,43.3c65.6,27.74,124.51,67.46,175.08,118.04,50.58,50.58,90.29,109.49,118.04,175.08,28.73,67.93,43.3,140.07,43.3,214.42s-14.57,146.49-43.3,214.42c-27.74,65.6-67.46,124.51-118.04,175.08-50.58,50.58-109.49,90.29-175.08,118.04-67.93,28.73-140.07,43.3-214.42,43.3Z"/>
            <path class="cls-12" d="M1250,755.77c-272.52,0-494.24,221.72-494.24,494.24s221.72,494.24,494.24,494.24,494.24-221.72,494.24-494.24-221.72-494.24-494.24-494.24h0ZM1250,1799.14c-74.12,0-146.04-14.52-213.75-43.17-65.39-27.66-124.12-67.25-174.54-117.67s-90.01-109.15-117.67-174.54c-28.64-67.72-43.16-139.63-43.16-213.75s14.52-146.04,43.16-213.75c27.66-65.39,67.25-124.12,117.67-174.54s109.15-90.01,174.54-117.67c67.72-28.64,139.63-43.16,213.75-43.16s146.04,14.52,213.75,43.16c65.39,27.66,124.12,67.25,174.54,117.67s90.01,109.15,117.67,174.54c28.64,67.72,43.16,139.63,43.16,213.75s-14.52,146.04-43.16,213.75c-27.66,65.39-67.25,124.12-117.67,174.54s-109.15,90.01-174.54,117.67c-67.72,28.64-139.63,43.17-213.75,43.17Z"/>
            <path class="cls-21" d="M1250,754.05c-273.47,0-495.95,222.48-495.95,495.95s222.48,495.95,495.95,495.95,495.95-222.48,495.95-495.95-222.48-495.95-495.95-495.95h0ZM1250,1797.42c-73.89,0-145.58-14.48-213.09-43.03-65.19-27.57-123.73-67.04-173.99-117.3-50.27-50.27-89.73-108.81-117.3-173.99-28.55-67.51-43.03-139.2-43.03-213.09s14.48-145.58,43.03-213.09c27.57-65.19,67.04-123.73,117.3-173.99,50.27-50.27,108.81-89.73,173.99-117.3,67.51-28.55,139.2-43.03,213.09-43.03s145.58,14.48,213.09,43.03c65.19,27.57,123.73,67.04,173.99,117.3s89.73,108.81,117.3,173.99c28.55,67.51,43.03,139.2,43.03,213.09s-14.48,145.58-43.03,213.09c-27.57,65.19-67.04,123.73-117.3,173.99-50.27,50.27-108.81,89.73-173.99,117.3-67.51,28.55-139.2,43.03-213.09,43.03Z"/>
            <path class="cls-17" d="M1250,752.33c-274.42,0-497.67,223.25-497.67,497.67s223.25,497.67,497.67,497.67,497.67-223.25,497.67-497.67-223.25-497.67-497.67-497.67h0ZM1250,1795.71c-73.66,0-145.13-14.43-212.42-42.89-64.99-27.49-123.34-66.83-173.45-116.94-50.11-50.11-89.45-108.46-116.94-173.45-28.46-67.29-42.89-138.76-42.89-212.42s14.43-145.13,42.89-212.42c27.49-64.99,66.83-123.34,116.94-173.45,50.11-50.11,108.46-89.45,173.45-116.94,67.29-28.46,138.76-42.89,212.42-42.89s145.13,14.43,212.42,42.89c64.99,27.49,123.34,66.83,173.45,116.94,50.11,50.11,89.45,108.46,116.94,173.45,28.46,67.29,42.89,138.76,42.89,212.42s-14.43,145.13-42.89,212.42c-27.49,64.99-66.83,123.34-116.94,173.45-50.11,50.11-108.46,89.45-173.45,116.94-67.29,28.46-138.76,42.89-212.42,42.89h0Z"/>
            <path class="cls-24" d="M1250,750.62c-275.36,0-499.38,224.03-499.38,499.38s224.02,499.38,499.38,499.38,499.38-224.03,499.38-499.38-224.03-499.38-499.38-499.38ZM1250,1793.99c-73.43,0-144.67-14.39-211.75-42.76-64.78-27.4-122.95-66.62-172.91-116.57-49.95-49.95-89.17-108.13-116.57-172.91-28.37-67.08-42.76-138.32-42.76-211.75s14.39-144.67,42.76-211.75c27.4-64.78,66.62-122.95,116.57-172.91,49.95-49.95,108.13-89.17,172.91-116.57,67.08-28.37,138.32-42.76,211.75-42.76s144.67,14.39,211.75,42.76c64.78,27.4,122.95,66.62,172.91,116.57,49.95,49.95,89.17,108.13,116.57,172.91,28.37,67.08,42.76,138.32,42.76,211.75s-14.39,144.67-42.76,211.75c-27.4,64.78-66.62,122.95-116.57,172.91-49.95,49.95-108.13,89.17-172.91,116.57-67.08,28.37-138.32,42.76-211.75,42.76Z"/>
            <path class="cls-2" d="M1250,748.91c-276.31,0-501.1,224.79-501.1,501.1s224.79,501.1,501.1,501.1,501.1-224.79,501.1-501.1-224.79-501.1-501.1-501.1ZM1250,1792.28c-73.2,0-144.22-14.34-211.08-42.62-64.57-27.31-122.56-66.41-172.36-116.2-49.8-49.79-88.89-107.78-116.2-172.36-28.28-66.87-42.62-137.89-42.62-211.08s14.34-144.22,42.62-211.08c27.31-64.57,66.41-122.56,116.2-172.36,49.79-49.79,107.78-88.89,172.36-116.2,66.87-28.28,137.89-42.62,211.08-42.62s144.22,14.34,211.08,42.62c64.57,27.31,122.56,66.41,172.36,116.2,49.79,49.8,88.89,107.79,116.2,172.36,28.28,66.87,42.62,137.89,42.62,211.08s-14.34,144.22-42.62,211.08c-27.31,64.57-66.41,122.56-116.2,172.36-49.8,49.8-107.79,88.89-172.36,116.2-66.87,28.28-137.89,42.62-211.08,42.62h0Z"/>
          </g>
          <g>
            <path class="cls-30" d="M1250,748.91c-276.31,0-501.1,224.79-501.1,501.1s224.79,501.1,501.1,501.1,501.1-224.79,501.1-501.1-224.79-501.1-501.1-501.1ZM1250,1792.28c-73.2,0-144.22-14.34-211.08-42.62-64.57-27.31-122.56-66.41-172.36-116.2-49.8-49.79-88.89-107.78-116.2-172.36-28.28-66.87-42.62-137.89-42.62-211.08s14.34-144.22,42.62-211.08c27.31-64.57,66.41-122.56,116.2-172.36,49.79-49.79,107.78-88.89,172.36-116.2,66.87-28.28,137.89-42.62,211.08-42.62s144.22,14.34,211.08,42.62c64.57,27.31,122.56,66.41,172.36,116.2,49.79,49.8,88.89,107.79,116.2,172.36,28.28,66.87,42.62,137.89,42.62,211.08s-14.34,144.22-42.62,211.08c-27.31,64.57-66.41,122.56-116.2,172.36-49.8,49.8-107.79,88.89-172.36,116.2-66.87,28.28-137.89,42.62-211.08,42.62h0Z"/>
            <path class="cls-14" d="M1250,746.56c-277.6,0-503.45,225.85-503.45,503.45s225.85,503.45,503.45,503.45,503.45-225.85,503.45-503.45-225.85-503.45-503.45-503.45h0ZM1250,1789.93c-72.88,0-143.59-14.28-210.17-42.44-64.29-27.19-122.04-66.12-171.62-115.71-49.58-49.58-88.51-107.32-115.7-171.62-28.16-66.57-42.44-137.29-42.44-210.17s14.28-143.59,42.44-210.17c27.19-64.29,66.12-122.04,115.7-171.62,49.58-49.58,107.32-88.51,171.62-115.7,66.57-28.16,137.29-42.44,210.17-42.44s143.59,14.28,210.17,42.44c64.29,27.19,122.04,66.12,171.62,115.7,49.58,49.58,88.51,107.32,115.7,171.62,28.16,66.57,42.44,137.29,42.44,210.17s-14.28,143.59-42.44,210.17c-27.19,64.29-66.12,122.04-115.7,171.62-49.58,49.58-107.32,88.51-171.62,115.71-66.57,28.16-137.29,42.44-210.17,42.44Z"/>
            <path class="cls-10" d="M1250,744.21c-278.9,0-505.8,226.9-505.8,505.8s226.9,505.8,505.8,505.8,505.8-226.9,505.8-505.8-226.9-505.8-505.8-505.8ZM1250,1787.58c-72.57,0-142.97-14.22-209.25-42.25-64.02-27.08-121.5-65.83-170.87-115.2-49.37-49.37-88.12-106.85-115.2-170.87-28.04-66.29-42.25-136.69-42.25-209.25s14.22-142.97,42.25-209.25c27.08-64.02,65.83-121.5,115.2-170.87,49.37-49.37,106.85-88.12,170.87-115.2,66.29-28.04,136.69-42.25,209.25-42.25s142.97,14.22,209.25,42.25c64.02,27.08,121.5,65.83,170.87,115.2,49.37,49.37,88.12,106.85,115.2,170.87,28.04,66.29,42.25,136.69,42.25,209.25s-14.22,142.97-42.25,209.25c-27.08,64.02-65.83,121.5-115.2,170.87-49.37,49.37-106.85,88.12-170.87,115.2-66.29,28.04-136.69,42.25-209.25,42.25Z"/>
            <path class="cls-20" d="M1250,741.86c-280.19,0-508.15,227.95-508.15,508.14s227.95,508.15,508.15,508.15,508.14-227.95,508.14-508.15-227.95-508.14-508.14-508.14h0ZM1250,1785.24c-72.25,0-142.34-14.15-208.34-42.07-63.74-26.96-120.98-65.55-170.13-114.7-49.15-49.15-87.74-106.39-114.7-170.13-27.92-65.99-42.07-136.09-42.07-208.34s14.15-142.34,42.07-208.34c26.96-63.74,65.55-120.97,114.7-170.13,49.15-49.15,106.39-87.74,170.13-114.7,65.99-27.92,136.09-42.07,208.34-42.07s142.34,14.15,208.34,42.07c63.74,26.96,120.97,65.55,170.13,114.7,49.15,49.15,87.74,106.39,114.7,170.13,27.92,65.99,42.07,136.09,42.07,208.34s-14.15,142.34-42.07,208.34c-26.96,63.74-65.55,120.98-114.7,170.13-49.15,49.15-106.39,87.74-170.13,114.7-65.99,27.92-136.09,42.07-208.34,42.07Z"/>
            <path class="cls-18" d="M1250,739.52c-281.48,0-510.49,229.01-510.49,510.49s229.01,510.49,510.49,510.49,510.49-229.01,510.49-510.49-229.01-510.49-510.49-510.49ZM1250,1782.89c-71.93,0-141.72-14.09-207.43-41.88-63.46-26.84-120.44-65.26-169.38-114.2-48.94-48.94-87.36-105.92-114.2-169.38-27.79-65.7-41.88-135.49-41.88-207.43s14.09-141.72,41.88-207.43c26.84-63.46,65.26-120.44,114.2-169.38,48.94-48.94,105.93-87.36,169.38-114.2,65.7-27.79,135.49-41.88,207.43-41.88s141.72,14.09,207.43,41.88c63.46,26.84,120.44,65.26,169.38,114.2,48.94,48.94,87.36,105.93,114.2,169.38,27.79,65.7,41.88,135.49,41.88,207.43s-14.09,141.72-41.88,207.43c-26.84,63.46-65.26,120.44-114.2,169.38-48.94,48.94-105.93,87.36-169.38,114.2-65.7,27.79-135.49,41.88-207.43,41.88h0Z"/>
            <path class="cls-25" d="M1250,737.17c-282.78,0-512.84,230.06-512.84,512.84s230.06,512.84,512.84,512.84,512.84-230.06,512.84-512.84-230.06-512.84-512.84-512.84ZM1250,1780.54c-71.62,0-141.1-14.03-206.51-41.7-63.18-26.72-119.91-64.97-168.63-113.69-48.72-48.72-86.97-105.46-113.69-168.63-27.67-65.41-41.7-134.89-41.7-206.51s14.03-141.1,41.7-206.51c26.72-63.18,64.97-119.91,113.69-168.63,48.72-48.72,105.46-86.97,168.63-113.69,65.41-27.67,134.89-41.7,206.51-41.7s141.1,14.03,206.51,41.7c63.18,26.72,119.91,64.97,168.63,113.69,48.72,48.72,86.97,105.46,113.69,168.63,27.67,65.41,41.7,134.89,41.7,206.51s-14.03,141.1-41.7,206.51c-26.72,63.18-64.97,119.91-113.69,168.63-48.72,48.72-105.46,86.97-168.63,113.69-65.41,27.67-134.89,41.7-206.51,41.7h0Z"/>
            <path class="cls-1" d="M1250,734.82c-284.07,0-515.19,231.11-515.19,515.19s231.11,515.19,515.19,515.19,515.19-231.11,515.19-515.19-231.11-515.19-515.19-515.19h0ZM1250,1778.19c-71.3,0-140.48-13.96-205.59-41.51-62.9-26.6-119.38-64.69-167.89-113.19-48.51-48.51-86.59-104.99-113.19-167.89-27.54-65.12-41.51-134.29-41.51-205.59s13.96-140.48,41.51-205.59c26.6-62.9,64.69-119.38,113.19-167.89,48.51-48.51,104.99-86.59,167.89-113.19,65.12-27.54,134.29-41.51,205.59-41.51s140.48,13.96,205.59,41.51c62.9,26.6,119.38,64.69,167.89,113.19,48.51,48.51,86.59,104.99,113.19,167.89,27.54,65.12,41.51,134.29,41.51,205.59s-13.96,140.48-41.51,205.59c-26.6,62.9-64.69,119.38-113.19,167.89-48.51,48.51-104.99,86.59-167.89,113.19-65.12,27.54-134.29,41.51-205.59,41.51Z"/>
          </g>
          <path class="cls-3" d="M1250,1778.19c-71.3,0-140.48-13.96-205.59-41.51-62.9-26.6-119.38-64.69-167.89-113.19-48.51-48.51-86.59-104.99-113.19-167.89-27.54-65.12-41.51-134.29-41.51-205.59s13.96-140.48,41.51-205.59c26.6-62.9,64.69-119.38,113.19-167.89,48.51-48.51,104.99-86.59,167.89-113.19,65.12-27.54,134.29-41.51,205.59-41.51s140.48,13.96,205.59,41.51c62.9,26.6,119.38,64.69,167.89,113.19,48.51,48.51,86.59,104.99,113.19,167.89,27.54,65.12,41.51,134.29,41.51,205.59s-13.96,140.48-41.51,205.59c-26.6,62.9-64.69,119.38-113.19,167.89-48.51,48.51-104.99,86.59-167.89,113.19-65.12,27.54-134.29,41.51-205.59,41.51ZM1250,734.82c-284.07,0-515.19,231.11-515.19,515.19s231.11,515.19,515.19,515.19,515.19-231.11,515.19-515.19-231.11-515.19-515.19-515.19h0Z"/>
          <g>
            <g>
              <path class="cls-28" d="M1602.8,985.76c-44-44-115.34-44-159.35,0l-331.7,331.7-97.43-97.43c-44-44-115.34-44-159.35,0s-44,115.34,0,159.35l177.11,177.11c22,22,50.84,33,79.67,33,.9,0,1.8-.01,2.7-.03,23.42-.56,46.71-8.38,66.18-23.46.75-.58,1.49-1.17,2.23-1.77,1.47-1.2,2.93-2.45,4.35-3.74,1.43-1.29,2.83-2.62,4.21-3.99l411.38-411.38c44-44,44-115.34,0-159.35h0Z"/>
              <path class="cls-23" d="M1569.86,1018.71c-25.81-25.81-67.66-25.81-93.46,0l-364.64,364.64-130.37-130.37c-25.81-25.81-67.66-25.81-93.46,0-25.81,25.81-25.81,67.66,0,93.46l177.09,177.1h.01c7.26,7.27,15.79,12.49,24.87,15.67,7.06,2.47,14.46,3.71,21.86,3.71s14.8-1.24,21.86-3.71c9.08-3.17,17.61-8.39,24.87-15.65l411.38-411.38c25.81-25.81,25.81-67.66,0-93.46h0Z"/>
            </g>
            <g>
              <path class="cls-27" d="M1569.86,1018.71c-25.81-25.81-67.66-25.81-93.46,0l-364.64,364.64-130.37-130.37c-25.81-25.81-67.66-25.81-93.46,0-25.81,25.81-25.81,67.66,0,93.46l177.09,177.1h.01c7.26,7.27,15.79,12.49,24.87,15.67,7.06,2.47,14.46,3.71,21.86,3.71s14.8-1.24,21.86-3.71c9.08-3.17,17.61-8.39,24.87-15.65l411.38-411.38c25.81-25.81,25.81-67.66,0-93.46h0Z"/>
              <path class="cls-8" d="M1563.63,1024.93c-12.48-12.48-29.7-17.32-45.12-14.51-12.97-.22-34.96,13.57-44.85,23.47l-361.91,361.91-128.1-128.1c-9.64-9.64-30.76-22.98-43.39-23.02-15.75-3.05-33.39,1.78-46.13,14.52-13.76,13.76-18.54,33.08-14.34,50.14.95,11.26,12.64,29.18,21.26,37.79l170.18,170.18h.01c6.66,6.63,14.53,11.29,22.9,13.91,2.17.68,4.37,1.23,6.58,1.64,4.43.83,8.94,1.11,13.41.86,6.68-.37,13.28-1.92,19.48-4.66,6.81-2.38,17.82-10.91,23.26-16.35l399.17-399.17c9.08-9.08,21.5-28.4,22.06-40.29,3.65-16.47-1.17-35.03-14.46-48.32h0Z"/>
              <path class="cls-9" d="M1557.41,1031.15c-12.34-12.34-30.34-15.56-44.63-9.67-8.65-.15-35.25,20.99-41.84,27.59l-359.18,359.18-125.82-125.82c-6.42-6.42-31.84-26.65-40.26-26.68-14.52-6.06-32.8-2.83-45.3,9.68-13.19,13.19-16.38,32.59-9.56,47.98.63,7.51,17.65,28.67,23.39,34.41l163.27,163.27h.01c6.04,6.02,13.28,10.08,20.92,12.16,1.98.54,3.99.95,6,1.22,4.03.55,8.1.57,12.12.07,5.95-.73,11.76-2.6,17.09-5.63,4.54-1.59,18.03-13.42,21.66-17.05l386.96-386.96c6.05-6.05,24.46-29.06,24.83-36.99,6.45-15,3.24-33.89-9.64-46.77h-.01Z"/>
              <path class="cls-22" d="M1551.18,1037.38c-12.2-12.2-30.97-13.81-44.15-4.84-4.32-.07-35.54,28.41-38.84,31.71l-356.45,356.45-123.54-123.54c-3.21-3.21-32.93-30.33-37.13-30.34-13.29-9.06-32.2-7.44-44.49,4.84-12.62,12.62-14.22,32.1-4.78,45.82.32,3.75,22.65,28.16,25.53,31.04l156.36,156.36h0c5.41,5.41,12.02,8.88,18.95,10.41,1.79.4,3.61.66,5.43.8,3.62.28,7.27.03,10.82-.72,5.23-1.09,10.24-3.29,14.69-6.58,2.27-.8,18.24-15.94,20.06-17.76l374.75-374.75c3.03-3.03,27.42-29.73,27.61-33.68,9.25-13.53,7.65-32.75-4.82-45.22h0Z"/>
              <path class="cls-6" d="M1544.95,1043.6c-12.06-12.06-31.61-12.06-43.67,0l-389.54,389.54-155.28-155.28c-12.06-12.06-31.61-12.06-43.67,0-12.06,12.06-12.06,31.61,0,43.67l177.11,177.11c6.03,6.03,13.93,9.04,21.84,9.04s15.8-3.01,21.84-9.04l411.38-411.38c12.06-12.06,12.06-31.61,0-43.67h0Z"/>
            </g>
            <g>
              <path class="cls-26" d="M1544.95,1043.6c-12.06-12.06-31.61-12.06-43.67,0l-389.54,389.54-155.28-155.28c-12.06-12.06-31.61-12.06-43.67,0-12.06,12.06-12.06,31.61,0,43.67l177.11,177.11c6.03,6.03,13.93,9.04,21.84,9.04s15.8-3.01,21.84-9.04l411.38-411.38c12.06-12.06,12.06-31.61,0-43.67h0Z"/>
              <path class="cls-13" d="M1543.14,1045.43c-11.05-11.05-28.98-11.05-40.03,0l-391.36,391.36-157.09-157.09c-11.05-11.05-28.98-11.05-40.03,0-11.05,11.05-11.05,28.98,0,40.03l177.11,177.11c5.53,5.53,12.77,8.29,20.01,8.29s14.48-2.76,20.01-8.29l411.38-411.38c11.05-11.05,11.05-28.98,0-40.03h0Z"/>
              <path class="cls-4" d="M1541.32,1047.24c-10.05-10.05-26.34-10.05-36.39,0l-393.18,393.18-158.91-158.91c-10.05-10.05-26.34-10.05-36.39,0-10.05,10.05-10.05,26.34,0,36.39l177.11,177.11c5.02,5.02,11.61,7.53,18.19,7.53s13.17-2.51,18.19-7.53l411.38-411.38c10.05-10.05,10.05-26.34,0-36.39h0Z"/>
              <path class="cls-7" d="M1539.5,1049.06c-9.04-9.04-23.71-9.04-32.75,0l-395,395-160.73-160.73c-9.04-9.04-23.71-9.04-32.75,0-9.04,9.04-9.04,23.7,0,32.75l177.11,177.11c4.52,4.52,10.45,6.78,16.38,6.78s11.85-2.26,16.38-6.78l411.38-411.38c9.04-9.04,9.04-23.7,0-32.75Z"/>
              <path class="cls-33" d="M1537.68,1050.88c-8.04-8.04-21.07-8.04-29.11,0l-396.82,396.82-162.55-162.55c-8.04-8.04-21.07-8.04-29.11,0-8.04,8.04-8.04,21.07,0,29.11l177.11,177.11c4.02,4.02,9.29,6.03,14.55,6.03s10.54-2.01,14.55-6.03l411.38-411.38c8.04-8.04,8.04-21.07,0-29.11h0Z"/>
            </g>
            <g>
              <path class="cls-29" d="M1537.68,1050.88c-8.04-8.04-21.07-8.04-29.11,0l-396.82,396.82-162.55-162.55c-8.04-8.04-21.07-8.04-29.11,0-8.04,8.04-8.04,21.07,0,29.11l177.11,177.11c4.02,4.02,9.29,6.03,14.55,6.03s10.54-2.01,14.55-6.03l411.38-411.38c8.04-8.04,8.04-21.07,0-29.11h0Z"/>
              <path class="cls-11" d="M1534.36,1054.2c-6.21-6.21-16.27-6.21-22.47,0l-400.14,400.14-165.87-165.87c-6.21-6.21-16.27-6.21-22.47,0-6.21,6.21-6.21,16.27,0,22.47l177.11,177.11c3.11,3.11,7.17,4.65,11.24,4.65s8.14-1.55,11.24-4.65l411.38-411.38c6.21-6.21,6.21-16.27,0-22.47Z"/>
              <path class="cls-5" d="M1531.04,1057.52c-4.37-4.37-11.46-4.37-15.83,0l-403.46,403.46-169.19-169.19c-4.37-4.37-11.46-4.37-15.83,0s-4.37,11.46,0,15.83l177.11,177.11c2.18,2.19,5.05,3.28,7.92,3.28s5.73-1.09,7.92-3.28l411.38-411.38c4.37-4.37,4.37-11.46,0-15.83h0Z"/>
              <path class="cls-34" d="M1527.72,1060.84c-2.54-2.54-6.65-2.54-9.19,0l-406.78,406.78-172.51-172.51c-2.54-2.54-6.65-2.54-9.19,0s-2.54,6.65,0,9.19l177.11,177.11c1.27,1.27,2.93,1.9,4.6,1.9s3.33-.64,4.6-1.9l411.38-411.38c2.54-2.54,2.54-6.65,0-9.19h0Z"/>
            </g>
            <path class="cls-3" d="M1527.72,1060.84c-2.54-2.54-6.65-2.54-9.19,0l-406.78,406.78-172.51-172.51c-2.54-2.54-6.65-2.54-9.19,0s-2.54,6.65,0,9.19l177.11,177.11c1.27,1.27,2.93,1.9,4.6,1.9s3.33-.64,4.6-1.9l411.38-411.38c2.54-2.54,2.54-6.65,0-9.19h0Z"/>
          </g>
        </g>
      </g>
    </g>
  </g>
</svg>