<?xml version="1.0" encoding="UTF-8"?>
<svg version="1.1" viewBox="0 0 916 892" width="1280" height="1280" xmlns="http://www.w3.org/2000/svg">
<path transform="translate(660,131)" d="m0 0h3l-2 5-12 8-13 12-8 9-7 10-8 15-7 21-3 15-1 11v24l3 25 6 24 7 20 13 30 13 26 10 24 6 19 4 20 1 8v28l-4 24-6 18-10 19-7 9-9 10-11 9-16 9-15 5-15 3h-27l-15-3-18-6-16-8-17-10-11-7v240l-1 6-5 2h-25l-1-1v-247l-27 16-16 8-16 6-20 4h-25l-15-3-15-5-17-9-11-9-7-7-10-14-8-16-6-18-4-21-1-12v-11l2-19 4-19 8-24 8-18 9-19 8-16 8-19 10-30 5-25 2-22-1-26-4-21-7-19-8-15-9-12-11-12-12-9-10-7v-2h7l14 4 14 6 15 10 13 11 10 12 10 17 8 20 5 21 2 14v42l-4 29-5 23-8 28-10 32-7 28-3 21v11l3 14 5 9 5 5 5 4 9 4 17 3h12l20-4 25-9 8-4 5-6-1-10-4-18-3-22v-39l3-31 12-77 7-41 13-67 6-27 3-5 4 1 8 36 5 24 8 47 12 80 9 62v31l-4 26-5 22v9l4 5 15 8 18 6 17 3h17l18-4 10-5 6-5 6-10 3-12v-22l-3-20-6-23-12-36-7-25-5-24-3-22-1-20v-12l1-18 4-22 6-18 8-16 7-11 13-15 15-12 16-9 17-6z" fill="#58286F"/>
<path transform="translate(420,6)" d="m0 0h48l30 3 42 6 36 8 24 7 26 9 28 12 24 12 17 10 24 16 17 13 11 9 12 11 8 7 16 16 7 8 9 10 11 14 13 18 10 15 13 21 9 16 13 25 11 27 9 29 7 31 5 33 3 35v49l-3 29-5 30-6 25-9 29-8 21-9 20-13 25-15 24-10 14-10 13-11 13-7 8-9 10-18 18-8 7-13 11-14 11-16 12-23 15-22 13-23 12-27 12-27 10-30 9-38 8-34 5-28 2h-31l-26-2-35-5-30-6-26-7-30-10-26-11-25-12-22-12-17-11-12-8-16-12-16-13-8-7-10-9-15-14-7-8-14-15-13-17-10-13-10-15-12-20-8-14-11-23-11-27-9-27-8-32-6-35-3-23v-61l5-37 6-31 8-29 9-26 12-28 10-19 13-23 10-15 10-14 10-13 12-14 7-8 9-10 21-21 8-7 13-11 14-11 19-14 17-11 17-10 23-12 22-10 27-10 27-8 26-6 37-6zm6 12-32 3-30 5-27 6-30 9-21 8-30 13-23 12-20 12-21 14-18 13-13 11-10 8v2l-4 2-24 24-7 8-11 13-12 16-11 16-7 11-10 17-14 27-9 21-7 18-9 30-6 25-5 29-2 23-1 19v23l2 30 3 24 5 26 8 30 8 23 9 22 12 25 13 23 14 21 12 16 8 10 12 14 15 16 10 10 8 7 14 12 20 15 24 16 26 15 22 11 31 13 36 12 26 7 34 7 37 5 23 2 20 1h28l25-2 30-5 25-6 26-8 21-8 20-9 24-12 20-12 21-14 19-14 13-11 8-7 14-12 24-24 9-11 9-10 13-17 10-14 11-18 9-16 8-16 10-22 10-28 8-28 6-28 4-29 2-23v-44l-2-24-5-33-7-30-6-20-10-28-9-20-8-16-9-17-14-22-10-14-11-14-9-11-14-15-24-24-8-7-17-14-18-13-21-14-26-15-24-12-24-10-28-10-29-8-29-6-38-5-16-1z" fill="#5F3276"/>
</svg>
